<svg width="129" height="128" viewBox="0 0 129 128" fill="none" xmlns="http://www.w3.org/2000/svg">
<path d="M111.755 48.4699L111.839 35.4385C111.846 34.2212 111.333 33.0588 110.429 32.2443L90.0491 13.8944C89.1445 13.0799 87.9348 12.6911 86.7251 12.8261L73.7738 14.2712C72.4246 14.4217 71.2278 15.2061 70.5514 16.3831L40.3019 69.0245L75.4951 76.8512L109.992 51.8953C111.092 51.0996 111.747 49.8274 111.755 48.4699Z" fill="#FF7600"/>
<path d="M75.4951 76.8512L40.3019 69.0245L33.5203 80.8261L61.4256 87.0295L75.4951 76.8512Z" fill="#CD113B"/>
<path d="M17.4553 108.783C15.1676 112.764 19.9278 117.05 23.648 114.359L61.4256 87.0295L33.5203 80.8261L17.4553 108.783Z" fill="#52006A"/>
</svg>
