<?xml version="1.0" standalone="no"?>
<!DOCTYPE svg PUBLIC "-//W3C//DTD SVG 20010904//EN"
 "http://www.w3.org/TR/2001/REC-SVG-20010904/DTD/svg10.dtd">
<svg version="1.0" xmlns="http://www.w3.org/2000/svg"
 width="513.000000pt" height="513.000000pt" viewBox="0 0 513.000000 513.000000"
 preserveAspectRatio="xMidYMid meet">
<metadata>
Created by potrace 1.14, written by Peter Selinger 2001-2017
</metadata>
<g transform="translate(0.000000,513.000000) scale(0.100000,-0.100000)"
fill="#000000" stroke="none">
<path d="M3408 4605 c-2 -2 -32 -6 -68 -9 -36 -3 -78 -8 -95 -10 -16 -2 -57
-7 -90 -10 -33 -4 -78 -9 -100 -11 -22 -3 -62 -7 -88 -10 -53 -5 -107 -27
-130 -53 -12 -13 -229 -384 -369 -632 -11 -19 -37 -64 -58 -100 -21 -36 -48
-83 -60 -105 -12 -22 -65 -114 -118 -205 -52 -91 -100 -174 -106 -185 -21 -37
-137 -240 -146 -255 -6 -8 -39 -67 -75 -130 -36 -63 -69 -122 -74 -130 -17
-29 -336 -584 -364 -634 -16 -28 -53 -91 -82 -141 -53 -92 -203 -353 -327
-570 -38 -66 -72 -127 -78 -135 -5 -8 -64 -111 -132 -229 -68 -118 -133 -231
-145 -252 -34 -58 -44 -106 -32 -154 24 -94 126 -150 218 -120 20 6 710 497
774 550 9 8 20 15 23 15 3 0 11 6 19 12 7 7 63 49 124 93 61 44 180 130 264
191 83 61 292 211 462 334 171 123 346 250 390 282 44 32 393 285 775 561 577
418 699 510 717 543 21 39 22 51 24 340 2 340 4 330 -78 407 -51 48 -55 52
-178 162 -43 39 -90 81 -105 95 -15 14 -43 39 -61 55 -67 59 -234 209 -245
220 -9 9 -109 99 -191 172 -42 37 -87 54 -143 52 -27 -1 -51 -3 -52 -4z"/>
</g>
</svg>
