<svg width="100%" height="175px" viewBox="0 0 210 111" fill="none" xmlns="http://www.w3.org/2000/svg">
<g clip-path="url(#clip0_0_1)">
<path fill-rule="evenodd" clip-rule="evenodd" d="M108.109 63.8326C117.089 62.429 123.965 54.3483 123.965 44.8652C123.965 34.3898 115.575 25.8978 105.226 25.8978C103.866 25.8978 102.539 26.0445 101.262 26.3231C101.197 16.0045 92.9127 7.65991 82.7032 7.65991C77.7743 7.65991 73.2942 9.60481 69.971 12.7778C67.436 5.34158 60.4606 0 52.2526 0C42.2633 0 34.0997 7.91157 33.5439 17.8819C31.8718 17.1714 30.0353 16.7789 28.1083 16.7789C20.3464 16.7789 14.0541 23.1479 14.0541 31.0044C14.0541 32.5316 14.2919 34.0026 14.732 35.3815H14.0541C6.29226 35.3815 0 41.7505 0 49.607C0 57.4636 6.29226 63.8326 14.0541 63.8326H108.109Z" fill="#809FFF"/>
<path fill-rule="evenodd" clip-rule="evenodd" d="M97.0505 82.3352C87.6679 80.8909 80.4846 72.5759 80.4846 62.818C80.4846 52.0389 89.2499 43.3008 100.063 43.3008C101.484 43.3008 102.869 43.4517 104.204 43.7384C104.272 33.1207 112.927 24.5343 123.594 24.5343C128.743 24.5343 133.424 26.5356 136.896 29.8005C139.545 22.1488 146.832 16.6523 155.408 16.6523C165.844 16.6523 174.373 24.7932 174.954 35.0525C176.701 34.3215 178.62 33.9175 180.633 33.9175C188.743 33.9175 195.317 40.4711 195.317 48.5554C195.317 50.1269 195.068 51.6405 194.608 53.0594H195.317C203.426 53.0594 210 59.613 210 67.6973C210 75.7816 203.426 82.3352 195.317 82.3352H97.0505Z" fill="#809FFF"/>
<g filter="drop-shadow(.25rem .25rem 0 #FF7600) drop-shadow(.25rem .25rem 0 #FFEA00)">
<path fill-rule="evenodd" clip-rule="evenodd" d="M163.938 100.837C176.404 98.9041 185.947 87.7785 185.947 74.7221C185.947 60.2994 174.302 48.6076 159.937 48.6076C158.049 48.6076 156.208 48.8095 154.434 49.1931C154.344 34.9863 142.845 23.4974 128.674 23.4974C121.832 23.4974 115.614 26.1752 111.001 30.5438C107.482 20.3055 97.7998 12.9512 86.4067 12.9512C72.541 12.9512 61.2093 23.8439 60.4379 37.5712C58.1169 36.593 55.5678 36.0525 52.8929 36.0525C42.119 36.0525 33.3849 44.8214 33.3849 55.6384C33.3849 57.741 33.715 59.7663 34.3258 61.6648H33.3849C22.611 61.6648 13.877 70.4337 13.877 81.2507C13.877 92.0677 22.611 100.837 33.3849 100.837H163.938Z" fill="#809FFF"/>
<path fill-rule="evenodd" clip-rule="evenodd" d="M163.938 100.837C176.404 98.9041 185.947 87.7785 185.947 74.7221C185.947 60.2994 174.302 48.6076 159.937 48.6076C158.049 48.6076 156.208 48.8095 154.434 49.1931C154.344 34.9863 142.845 23.4974 128.674 23.4974C121.832 23.4974 115.614 26.1752 111.001 30.5438C107.482 20.3055 97.7998 12.9512 86.4067 12.9512C72.541 12.9512 61.2093 23.8439 60.4379 37.5712C58.1169 36.593 55.5678 36.0525 52.8929 36.0525C42.119 36.0525 33.3849 44.8214 33.3849 55.6384C33.3849 57.741 33.715 59.7663 34.3258 61.6648H33.3849C22.611 61.6648 13.877 70.4337 13.877 81.2507C13.877 92.0677 22.611 100.837 33.3849 100.837H163.938Z" stroke="white" stroke-width="4"/>
</g>
</g>
</svg>
