<svg width="100%" height="175px" viewBox="0 0 204 164" fill="none" xmlns="http://www.w3.org/2000/svg">
<g clip-path="url(#clip0_0_1)">
<path d="M145.088 16.9726C142.775 12.9768 136.906 12.734 134.403 16.8892C131.9 12.734 126.031 12.9768 123.718 16.9726C122.68 19.5009 122.845 20.9171 123.718 23.4449C124.234 24.9412 126.438 28.0396 134.403 34.7754C142.368 28.0396 144.572 24.9412 145.088 23.4449C145.96 20.9171 146.126 19.5009 145.088 16.9726Z" fill="#F4718F"/>
<path d="M201.833 20.445C196.928 11.9728 184.485 11.4579 179.177 20.2681C173.87 11.4579 161.427 11.9728 156.521 20.445C154.321 25.8055 154.672 28.8081 156.521 34.1679C157.616 37.3403 162.289 43.9098 179.177 58.1914C196.066 43.9098 200.739 37.3403 201.833 34.1679C203.682 28.8081 204.033 25.8055 201.833 20.445Z" fill="#F4718F"/>
<path d="M83.0721 5.36331C79.066 -1.55584 68.9039 -1.97632 64.5694 5.21885C60.2349 -1.97632 50.0728 -1.55584 46.0667 5.36331C44.2697 9.74123 44.5567 12.1934 46.0667 16.5707C46.9605 19.1615 50.7768 24.5268 64.5694 36.1904C78.3621 24.5268 82.1784 19.1615 83.0721 16.5707C84.5822 12.1934 84.8692 9.74123 83.0721 5.36331Z" fill="#F4718F"/>
<g filter="drop-shadow(.325rem .25rem 0 #CD113B) drop-shadow(.325rem .25rem 0 #52006A)">
<mask id="path-6-inside-1_0_1" fill="white">
<path d="M174.469 43.4081C159.861 18.2245 122.805 16.6941 107 42.8823C91.1945 16.6941 54.1387 18.2245 39.5306 43.4081C32.9778 59.3424 34.0244 68.2677 39.5306 84.1996C42.7897 93.6294 56.7057 113.157 107 155.61C157.294 113.157 171.21 93.6294 174.469 84.1996C179.976 68.2677 181.022 59.3424 174.469 43.4081Z"/>
</mask>
<path d="M174.469 43.4081C159.861 18.2245 122.805 16.6941 107 42.8823C91.1945 16.6941 54.1387 18.2245 39.5306 43.4081C32.9778 59.3424 34.0244 68.2677 39.5306 84.1996C42.7897 93.6294 56.7057 113.157 107 155.61C157.294 113.157 171.21 93.6294 174.469 84.1996C179.976 68.2677 181.022 59.3424 174.469 43.4081Z" fill="#F4718F"/>
<path d="M107 42.8823L108.712 41.8489L107 39.0118L105.288 41.8489L107 42.8823ZM107 155.61L108.29 154.081L107 152.992L105.71 154.081L107 155.61ZM108.414 44.4173C108.513 44.2489 108.612 44.0817 108.712 43.9158L105.288 41.8489C105.178 42.031 105.069 42.2144 104.961 42.3989L108.414 44.4173ZM105.71 154.081C105.606 154.169 105.502 154.256 105.398 154.344L107.977 157.402C108.082 157.314 108.186 157.226 108.29 157.138L105.71 154.081ZM109.039 42.3989C108.931 42.2144 108.822 42.031 108.712 41.8489L105.288 43.9158C105.388 44.0817 105.487 44.2489 105.586 44.4173L109.039 42.3989ZM105.71 157.138C105.814 157.226 105.918 157.314 106.023 157.402L108.602 154.344C108.498 154.256 108.394 154.169 108.29 154.081L105.71 157.138ZM107 42.8823L103.575 44.9492L107 50.6235L110.425 44.9492L107 42.8823ZM174.469 43.4081L178.169 41.8868L178.066 41.6358L177.929 41.4011L174.469 43.4081ZM174.469 84.1996L178.25 85.5062L178.25 85.5062L174.469 84.1996ZM107 155.61L104.42 158.666L107 160.844L109.58 158.666L107 155.61ZM39.5306 43.4081L36.0706 41.4011L35.9345 41.6358L35.8312 41.8868L39.5306 43.4081ZM39.5306 84.1996L35.7501 85.5062L35.7501 85.5062L39.5306 84.1996ZM110.425 44.9492C124.599 21.4628 157.869 22.7624 171.009 45.4151L177.929 41.4011C161.853 13.6866 121.012 11.9253 103.575 40.8155L110.425 44.9492ZM170.77 44.9295C173.912 52.5705 175.108 58.2242 174.992 63.7206C174.875 69.2897 173.409 75.021 170.689 82.8929L178.25 85.5062C181.036 77.4463 182.846 70.7489 182.991 63.8889C183.137 56.9561 181.579 50.18 178.169 41.8868L170.77 44.9295ZM170.689 82.8929C169.32 86.8542 165.447 93.6189 155.392 104.854C145.391 116.029 129.492 131.39 104.42 152.553L109.58 158.666C134.803 137.376 151.009 121.748 161.354 110.189C171.645 98.689 176.36 90.9747 178.25 85.5062L170.689 82.8929ZM110.425 40.8155C92.9885 11.9253 52.1468 13.6866 36.0706 41.4011L42.9907 45.4151C56.1307 22.7624 89.4006 21.4628 103.575 44.9492L110.425 40.8155ZM35.8312 41.8868C32.4207 50.18 30.8634 56.9561 31.0094 63.8889C31.1538 70.7489 32.9645 77.4463 35.7501 85.5062L43.3112 82.8929C40.5906 75.021 39.1248 69.2897 39.0076 63.7206C38.8919 58.2242 40.0877 52.5705 43.23 44.9295L35.8312 41.8868ZM35.7501 85.5062C37.6401 90.9747 42.3548 98.689 52.6465 110.189C62.9912 121.748 79.1974 137.376 104.42 158.666L109.58 152.553C84.5083 131.39 68.6094 116.029 58.6078 104.854C48.5531 93.6189 44.6803 86.8542 43.3112 82.8929L35.7501 85.5062Z" fill="white" mask="url(#path-6-inside-1_0_1)"/>
</g>
<mask id="path-8-outside-2_0_1" maskUnits="userSpaceOnUse" x="2.38419e-07" y="43.873" width="53" height="52" fill="black">
<rect fill="white" x="2.38419e-07" y="43.873" width="53" height="52"/>
<path d="M47.5842 54.9408C43.0192 47.1186 31.4392 46.6432 26.5 54.7774C21.5608 46.6432 9.98085 47.1186 5.41583 54.9408C3.36806 59.8901 3.69512 62.6623 5.41583 67.6108C6.43429 70.5398 10.783 76.6053 26.5 89.7912C42.217 76.6053 46.5657 70.5398 47.5842 67.6108C49.3049 62.6623 49.6319 59.8901 47.5842 54.9408Z"/>
</mask>
<path d="M47.5842 54.9408C43.0192 47.1186 31.4392 46.6432 26.5 54.7774C21.5608 46.6432 9.98085 47.1186 5.41583 54.9408C3.36806 59.8901 3.69512 62.6623 5.41583 67.6108C6.43429 70.5398 10.783 76.6053 26.5 89.7912C42.217 76.6053 46.5657 70.5398 47.5842 67.6108C49.3049 62.6623 49.6319 59.8901 47.5842 54.9408Z" fill="#F4718F"/>
<path d="M26.5 54.7774L28.2095 53.7394L26.5 50.924L24.7905 53.7394L26.5 54.7774ZM26.5 89.7912L27.7855 88.2591L26.5 87.1805L25.2145 88.2591L26.5 89.7912ZM28.1265 55.9545C28.1539 55.9078 28.1816 55.8615 28.2095 55.8155L24.7905 53.7394C24.7528 53.8015 24.7154 53.8641 24.6784 53.927L28.1265 55.9545ZM25.2145 88.2591C25.1823 88.2861 25.15 88.3132 25.1176 88.3403L27.6873 91.4057C27.72 91.3783 27.7527 91.3508 27.7855 91.3233L25.2145 88.2591ZM28.3216 53.927C28.2846 53.864 28.2472 53.8015 28.2095 53.7394L24.7905 55.8155C24.8184 55.8615 24.8461 55.9079 24.8735 55.9545L28.3216 53.927ZM25.2145 91.3233C25.2472 91.3508 25.28 91.3783 25.3127 91.4057L27.8824 88.3403C27.85 88.3132 27.8177 88.2861 27.7855 88.2591L25.2145 91.3233ZM26.5 54.7774L23.081 56.8535L26.5 62.4843L29.919 56.8535L26.5 54.7774ZM47.5842 54.9408L51.2803 53.4115L51.1762 53.1598L51.0389 52.9246L47.5842 54.9408ZM47.5842 67.6108L43.8061 66.2971L47.5842 67.6108ZM26.5 89.7912L23.9291 92.8556L26.5 95.0125L29.0709 92.8556L26.5 89.7912ZM5.41583 54.9408L1.96111 52.9246L1.82383 53.1598L1.7197 53.4115L5.41583 54.9408ZM5.41583 67.6108L1.63771 68.9245L1.63771 68.9246L5.41583 67.6108ZM29.919 56.8535C33.2263 51.407 41.0355 51.6553 44.1295 56.9569L51.0389 52.9246C45.0028 42.5818 29.6522 41.8795 23.081 52.7014L29.919 56.8535ZM43.8881 56.47C44.7766 58.6176 45.0238 59.9838 44.9983 61.1914C44.9711 62.4724 44.6337 63.9169 43.8061 66.2971L51.3623 68.9245C52.2554 66.3562 52.9418 63.9403 52.9965 61.3608C53.0526 58.7078 52.4395 56.2132 51.2803 53.4115L43.8881 56.47ZM43.8061 66.2971C43.5597 67.0055 42.6422 68.7788 39.5815 72.1781C36.5745 75.5176 31.7121 80.1972 23.9291 86.7268L29.0709 92.8556C37.0048 86.1993 42.1753 81.2532 45.5266 77.5312C48.8241 73.869 50.5902 71.1451 51.3623 68.9245L43.8061 66.2971ZM29.919 52.7014C23.3478 41.8795 7.99717 42.5818 1.96111 52.9246L8.87054 56.9569C11.9645 51.6553 19.7737 51.407 23.081 56.8535L29.919 52.7014ZM1.7197 53.4115C0.560513 56.2132 -0.0526403 58.7078 0.0035482 61.3608C0.0581814 63.9403 0.744655 66.3562 1.63771 68.9245L9.19394 66.2971C8.36629 63.9169 8.02889 62.4724 8.00175 61.1914C7.97618 59.9838 8.22338 58.6176 9.11195 56.47L1.7197 53.4115ZM1.63771 68.9246C2.40984 71.1451 4.17593 73.869 7.4734 77.5312C10.8247 81.2532 15.9952 86.1993 23.9291 92.8556L29.0709 86.7268C21.2879 80.1972 16.4255 75.5176 13.4185 72.1781C10.3578 68.7788 9.44027 67.0055 9.19394 66.2971L1.63771 68.9246Z" fill="white" mask="url(#path-8-outside-2_0_1)"/>
</g>
<defs>
<clipPath id="clip0_0_1">
<rect width="1440" height="6517" fill="white" transform="translate(-610 -2037)"/>
</clipPath>
</defs>
</svg>
