<svg class="service-class__image" width="100%" height="200px" viewBox="0 0 200 187" fill="none" xmlns="http://www.w3.org/2000/svg">
<g clip-path="url(#clip0_0_1)">
<path d="M195.168 105.041L183.199 93.0722C182.857 92.7304 182.32 92.6821 181.923 92.9573L143.504 119.568C142.993 119.922 142.925 120.65 143.36 121.092L149.598 127.426C150.008 127.843 149.975 128.52 149.527 128.895L110.27 161.741C109.365 162.499 110.289 163.925 111.35 163.407L175.895 131.908C176.512 131.607 176.649 130.787 176.163 130.302L169.325 123.464C168.865 123.004 168.96 122.234 169.517 121.899L194.976 106.605C195.533 106.27 195.628 105.501 195.168 105.041Z" fill="#FFEA00"/>
<path d="M11.6334 108.358L4.26994 121.112C4.02826 121.531 4.12059 122.062 4.48929 122.375L35.842 148.956C36.3155 149.357 37.0364 149.235 37.3509 148.7L41.2018 142.147C41.4978 141.643 42.1606 141.499 42.6387 141.835L78.8114 167.24C79.7775 167.918 80.9155 166.656 80.1407 165.765L39.1802 118.668C38.7296 118.15 37.9029 118.229 37.5596 118.824L33.4374 125.964C33.1122 126.527 32.3444 126.635 31.8766 126.183L13.1942 108.139C12.7264 107.687 11.9586 107.795 11.6334 108.358Z" fill="#FFEA00"/>
<path d="M173.054 157.897L170.668 151.136C170.507 150.68 170.043 150.405 169.566 150.482L148.092 153.939C147.479 154.038 147.104 154.665 147.306 155.252L148.337 158.249C148.528 158.802 148.206 159.399 147.64 159.543L128.071 164.553C126.927 164.845 127.146 166.531 128.327 166.521L158.424 166.284C159.111 166.278 159.588 165.599 159.359 164.951L158.247 161.8C158.031 161.187 158.448 160.534 159.096 160.472L172.205 159.225C172.853 159.163 173.27 158.51 173.054 157.897Z" fill="#FFEA00"/>
<path d="M35.2852 163.122L35.2852 168.665C35.2852 169.145 35.6274 169.558 36.1 169.647L52.715 172.778C53.3277 172.894 53.8956 172.427 53.9002 171.803L53.9166 169.595C53.9209 169.01 54.4253 168.553 55.0084 168.607L69.391 169.934C70.5617 170.042 70.9264 168.392 69.8192 167.997L48.7609 160.477C48.1097 160.245 47.4246 160.727 47.4246 161.419L47.4246 163.68C47.4246 164.334 46.8072 164.812 46.174 164.648L36.5357 162.153C35.9026 161.99 35.2852 162.468 35.2852 163.122Z" fill="#FFEA00"/>
<g filter="drop-shadow(.25rem .25rem 0 #FF7600) drop-shadow(.25rem .25rem 0 #CD113B)">
<path d="M128.768 2H87.9893C84.4325 2 81.3029 4.3483 80.3084 7.76325L58.2529 83.5013C56.7661 88.6069 60.5819 93.7152 65.8995 93.738L80.0098 93.7986C84.9693 93.8198 88.7147 98.3023 87.8541 103.187L79.7027 149.449C78.1998 157.978 89.4332 162.481 94.2377 155.275L145.993 77.6461C149.537 72.3297 145.726 65.2083 139.337 65.2083H128.004C122.408 65.2083 118.541 59.6097 120.522 54.3759L136.25 12.8324C138.231 7.59864 134.364 2 128.768 2Z" fill="#FFEA00"/>
<path d="M128.768 2H87.9893C84.4325 2 81.3029 4.3483 80.3084 7.76325L58.2529 83.5013C56.7661 88.6069 60.5819 93.7152 65.8995 93.738L80.0098 93.7986C84.9693 93.8198 88.7147 98.3023 87.8541 103.187L79.7027 149.449C78.1998 157.978 89.4332 162.481 94.2377 155.275L145.993 77.6461C149.537 72.3297 145.726 65.2083 139.337 65.2083H128.004C122.408 65.2083 118.541 59.6097 120.522 54.3759L136.25 12.8324C138.231 7.59864 134.364 2 128.768 2Z" stroke="white" stroke-width="4"/>
</g>
</g>
<defs>
<clipPath id="clip0_0_1">
<rect width="1440" height="6517" fill="white" transform="translate(-262 -2037)"/>
</clipPath>
</defs>
</svg>
