<svg width="100%" height="175px" viewBox="0 0 158 185" fill="none" xmlns="http://www.w3.org/2000/svg">
<g clip-path="url(#clip0_0_1)">
<path fill-rule="evenodd" clip-rule="evenodd" d="M77.5716 0C78.6762 -4.82823e-08 79.5716 0.89543 79.5716 2V3.17135C79.5716 4.27592 78.6762 5.17135 77.5716 5.17135C76.467 5.17135 75.5716 4.27592 75.5716 3.17135V2C75.5716 0.89543 76.467 4.82823e-08 77.5716 0ZM77.5716 10.5422C78.6762 10.5422 79.5716 11.4376 79.5716 12.5422V19.5703C79.5716 20.6749 78.6762 21.5703 77.5716 21.5703C76.467 21.5703 75.5716 20.6749 75.5716 19.5703V12.5422C75.5716 11.4376 76.467 10.5422 77.5716 10.5422ZM77.5716 22.2557C78.6762 22.2557 79.5716 23.1512 79.5716 24.2557V25.4271C79.5716 26.5317 78.6762 27.4271 77.5716 27.4271C76.467 27.4271 75.5716 26.5317 75.5716 25.4271V24.2557C75.5716 23.1512 76.467 22.2557 77.5716 22.2557Z" fill="#FF9F4D"/>
<path fill-rule="evenodd" clip-rule="evenodd" d="M119.118 10.1794C120.075 10.7317 120.403 11.9549 119.851 12.9115L119.265 13.9259C118.713 14.8825 117.489 15.2102 116.533 14.6579C115.576 14.1056 115.248 12.8825 115.801 11.9259L116.386 10.9115C116.939 9.95487 118.162 9.62712 119.118 10.1794ZM113.847 19.3092C114.804 19.8615 115.132 21.0847 114.579 22.0413L111.065 28.1278C110.513 29.0844 109.29 29.4121 108.333 28.8598C107.377 28.3076 107.049 27.0844 107.601 26.1278L111.115 20.0413C111.668 19.0847 112.891 18.7569 113.847 19.3092ZM107.991 29.4534C108.947 30.0057 109.275 31.2289 108.723 32.1855L108.137 33.1999C107.585 34.1565 106.362 34.4842 105.405 33.932C104.448 33.3797 104.121 32.1565 104.673 31.1999L105.259 30.1855C105.811 29.2289 107.034 28.9011 107.991 29.4534Z" fill="#FF9F4D"/>
<path fill-rule="evenodd" clip-rule="evenodd" d="M36.0247 10.1794C36.9813 9.62712 38.2045 9.95487 38.7568 10.9115L39.3425 11.9259C39.8948 12.8825 39.567 14.1056 38.6104 14.6579C37.6538 15.2102 36.4307 14.8825 35.8784 13.9259L35.2927 12.9115C34.7404 11.9549 35.0682 10.7317 36.0247 10.1794ZM41.2958 19.3092C42.2524 18.7569 43.4756 19.0847 44.0279 20.0413L47.542 26.1278C48.0942 27.0844 47.7665 28.3076 46.8099 28.8598C45.8533 29.4121 44.6301 29.0844 44.0778 28.1278L40.5638 22.0413C40.0115 21.0847 40.3393 19.8615 41.2958 19.3092ZM47.1526 29.4534C48.1092 28.9011 49.3324 29.2289 49.8847 30.1855L50.4703 31.1999C51.0226 32.1565 50.6949 33.3797 49.7383 33.932C48.7817 34.4842 47.5585 34.1565 47.0062 33.1999L46.4206 32.1855C45.8683 31.2289 46.196 30.0057 47.1526 29.4534Z" fill="#FF9F4D"/>
<path fill-rule="evenodd" clip-rule="evenodd" d="M146.447 40.6458C147 41.6024 146.672 42.8256 145.715 43.3779L144.701 43.9636C143.744 44.5158 142.521 44.1881 141.969 43.2315C141.417 42.2749 141.744 41.0517 142.701 40.4995L143.715 39.9138C144.672 39.3615 145.895 39.6892 146.447 40.6458ZM137.318 45.9169C137.87 46.8735 137.542 48.0967 136.586 48.649L130.499 52.163C129.542 52.7153 128.319 52.3876 127.767 51.431C127.215 50.4744 127.542 49.2512 128.499 48.6989L134.586 45.1849C135.542 44.6326 136.765 44.9603 137.318 45.9169ZM127.173 51.7737C127.726 52.7303 127.398 53.9535 126.441 54.5057L125.427 55.0914C124.47 55.6437 123.247 55.316 122.695 54.3594C122.143 53.4028 122.47 52.1796 123.427 51.6273L124.441 51.0416C125.398 50.4894 126.621 50.8171 127.173 51.7737Z" fill="#FF9F4D"/>
<path fill-rule="evenodd" clip-rule="evenodd" d="M10.0635 40.6458C10.6158 39.6892 11.839 39.3615 12.7956 39.9138L13.81 40.4995C14.7666 41.0517 15.0943 42.2749 14.542 43.2315C13.9898 44.1881 12.7666 44.5158 11.81 43.9636L10.7956 43.3779C9.83899 42.8256 9.51124 41.6024 10.0635 40.6458ZM19.1933 45.9169C19.7456 44.9603 20.9688 44.6326 21.9254 45.1849L28.0119 48.6989C28.9685 49.2512 29.2962 50.4744 28.744 51.431C28.1917 52.3876 26.9685 52.7153 26.0119 52.163L19.9254 48.649C18.9688 48.0967 18.641 46.8735 19.1933 45.9169ZM29.3375 51.7737C29.8898 50.8171 31.113 50.4894 32.0696 51.0416L33.084 51.6273C34.0406 52.1796 34.3684 53.4028 33.8161 54.3594C33.2638 55.316 32.0406 55.6437 31.084 55.0914L30.0696 54.5057C29.113 53.9535 28.7853 52.7303 29.3375 51.7737Z" fill="#FF9F4D"/>
<path fill-rule="evenodd" clip-rule="evenodd" d="M157.962 88.5C157.962 89.6046 157.067 90.5 155.962 90.5H154.791C153.686 90.5 152.791 89.6046 152.791 88.5C152.791 87.3954 153.686 86.5 154.791 86.5H155.962C157.067 86.5 157.962 87.3954 157.962 88.5ZM147.42 88.5C147.42 89.6046 146.525 90.5 145.42 90.5H138.392C137.287 90.5 136.392 89.6046 136.392 88.5C136.392 87.3954 137.287 86.5 138.392 86.5H145.42C146.525 86.5 147.42 87.3954 147.42 88.5ZM135.707 88.5C135.707 89.6046 134.811 90.5 133.707 90.5H132.535C131.431 90.5 130.535 89.6046 130.535 88.5C130.535 87.3954 131.431 86.5 132.535 86.5H133.707C134.811 86.5 135.707 87.3954 135.707 88.5Z" fill="#FF9F4D"/>
<path fill-rule="evenodd" clip-rule="evenodd" d="M0.785156 88.5C0.785156 87.3954 1.68059 86.5 2.78516 86.5H3.95651C5.06108 86.5 5.95651 87.3954 5.95651 88.5C5.95651 89.6046 5.06108 90.5 3.95651 90.5H2.78516C1.68059 90.5 0.785156 89.6046 0.785156 88.5ZM11.3273 88.5C11.3273 87.3954 12.2228 86.5 13.3273 86.5H20.3555C21.46 86.5 22.3555 87.3954 22.3555 88.5C22.3555 89.6046 21.46 90.5 20.3555 90.5H13.3273C12.2228 90.5 11.3273 89.6046 11.3273 88.5ZM23.0409 88.5C23.0409 87.3954 23.9363 86.5 25.0409 86.5H26.2122C27.3168 86.5 28.2122 87.3954 28.2122 88.5C28.2122 89.6046 27.3168 90.5 26.2122 90.5H25.0409C23.9363 90.5 23.0409 89.6046 23.0409 88.5Z" fill="#FF9F4D"/>
<g filter="drop-shadow(.325rem .25rem 0 #FFF266) drop-shadow(.325rem .25rem 0 #CD113B)">
<path d="M77.1211 32.6349C117.781 32.7181 129.956 79.2547 116.438 98.7326C102.908 118.228 101.461 125.923 99.9187 130.345C98.9295 133.181 97.2151 145.39 96.1131 153.777C95.8564 155.731 95.633 157.478 95.4596 158.85C95.2356 160.624 93.7332 161.957 91.9519 161.957H91.5489V164.167C91.5489 166.121 89.9711 167.704 88.0248 167.704H87.364V168.146C87.364 170.1 85.7862 171.683 83.8398 171.683C83.2316 171.683 82.7565 172.19 82.5588 172.765C82.112 174.065 80.882 174.999 79.4347 174.999H77.2304H77.0118H74.8075C73.3602 174.999 72.1302 174.065 71.6834 172.765C71.4857 172.19 71.0106 171.683 70.4023 171.683C68.456 171.683 66.8782 170.1 66.8782 168.146V167.704H66.2174C64.2711 167.704 62.6933 166.121 62.6933 164.167V161.957H62.2903C60.509 161.957 59.0065 160.624 58.7826 158.85C58.6092 157.478 58.3858 155.731 58.129 153.777C57.0271 145.39 55.3126 133.181 54.3235 130.345C52.7817 125.923 51.3343 118.228 37.8041 98.7326C24.286 79.2547 36.4607 32.7181 77.1211 32.6349Z" fill="#FF9F4D"/>
<path d="M77.0118 32.6348C117.76 32.6348 129.968 79.2373 116.438 98.7326C102.908 118.228 101.461 125.923 99.9187 130.345C98.9295 133.181 97.2151 145.39 96.1131 153.777M91.5489 161.957H91.9519C93.7332 161.957 95.2357 160.624 95.4596 158.85C95.633 157.478 95.8564 155.731 96.1131 153.777M91.5489 161.957H77.0118M91.5489 161.957V164.167C91.5489 166.121 89.9711 167.704 88.0248 167.704H87.364M87.364 167.704H77.0118M87.364 167.704V168.146C87.364 170.1 85.7862 171.683 83.8398 171.683V171.683C83.2316 171.683 82.7565 172.19 82.5588 172.765C82.112 174.065 80.882 174.999 79.4347 174.999H77.0118M96.1131 153.777H58.129M77.2304 32.6348C36.4825 32.6348 24.2739 79.2373 37.8041 98.7326C51.3343 118.228 52.7817 125.923 54.3235 130.345C55.3126 133.181 57.0271 145.39 58.129 153.777M62.6933 161.957H62.2903C60.509 161.957 59.0065 160.624 58.7826 158.85C58.6092 157.478 58.3858 155.731 58.129 153.777M62.6933 161.957H77.2304M62.6933 161.957V164.167C62.6933 166.121 64.2711 167.704 66.2174 167.704H66.8782M66.8782 167.704H77.2304M66.8782 167.704V168.146C66.8782 170.1 68.456 171.683 70.4023 171.683V171.683C71.0106 171.683 71.4857 172.19 71.6834 172.765C72.1302 174.065 73.3602 174.999 74.8075 174.999H77.2304" stroke="white" stroke-width="4"/>
</g>
</g>
<clipPath id="clip0_0_1">
<rect width="1440" height="6517" fill="white" transform="translate(-635 -2686)"/>
</clipPath>
</defs>
</svg>
