<svg width="100%" height="175px" viewBox="0 0 170 170" fill="none" xmlns="http://www.w3.org/2000/svg">
<g clip-path="url(#clip0_0_1)">
<g filter="drop-shadow(.25rem .25rem 0 #CD113B) drop-shadow(.25rem .25rem 0 #52006A)">
<path fill-rule="evenodd" clip-rule="evenodd" d="M160 58.532C160 89.7537 134.69 115.064 103.468 115.064C89.5496 115.064 76.8058 110.034 66.9555 101.692C66.1513 100.994 65.4551 100.377 64.8077 99.7781C63.6378 98.6811 62.5145 97.5348 61.4413 96.3427C61.0799 95.9379 60.7014 95.5041 60.2961 95.0307C51.9617 85.1824 46.9363 72.444 46.9363 58.532C46.9363 27.3102 72.2465 2 103.468 2C134.69 2 160 27.3102 160 58.532ZM103.468 96.7044C82.7306 96.7044 65.1088 79.0826 65.1088 58.345C65.1088 37.6074 82.7306 19.9855 103.468 19.9855C124.206 19.9855 141.828 37.6074 141.828 58.345C141.828 79.0826 124.206 96.7044 103.468 96.7044Z" fill="#9E00CC"/>
<path d="M51.7748 102.801L52.1504 103.176L60.2961 95.0307C60.6712 95.474 61.0529 95.9113 61.4413 96.3427C62.6362 97.681 63.6432 98.7009 64.8077 99.7781C64.8077 99.7781 66.2234 101.072 66.9555 101.692L66.9695 101.704L58.8241 109.85L59.1991 110.225C60.914 111.939 60.9141 114.72 59.1993 116.434L18.2059 157.428C14.7765 160.857 9.21625 160.857 5.7868 157.428L4.57208 156.213C1.14264 152.784 1.14265 147.223 4.5721 143.794L45.5652 102.801C47.28 101.086 50.0601 101.086 51.7748 102.801Z" fill="#9E00CC"/>
<path d="M46.9363 58.532C46.9363 27.3102 72.2465 2 103.468 2C134.69 2 160 27.3102 160 58.532C160 89.7537 134.69 115.064 103.468 115.064C89.5496 115.064 76.8058 110.034 66.9555 101.692M46.9363 58.532C46.9363 73.0701 52.4241 86.3265 61.4413 96.3427M46.9363 58.532C46.9363 72.444 51.9617 85.1824 60.2961 95.0307M60.2961 95.0307L52.1504 103.176L51.7748 102.801C50.0601 101.086 47.28 101.086 45.5652 102.801L4.5721 143.794C1.14265 147.223 1.14264 152.784 4.57208 156.213L5.7868 157.428C9.21625 160.857 14.7765 160.857 18.2059 157.428L59.1993 116.434C60.9141 114.72 60.914 111.939 59.1991 110.225L58.8241 109.85L66.9695 101.704M60.2961 95.0307C60.6712 95.474 61.0529 95.9113 61.4413 96.3427M60.2961 95.0307C60.7014 95.5041 61.0799 95.9379 61.4413 96.3427M66.9695 101.704C66.9648 101.7 66.9602 101.696 66.9555 101.692M66.9695 101.704L66.9555 101.692M61.4413 96.3427C62.6362 97.681 63.6432 98.7009 64.8077 99.7781M61.4413 96.3427C62.5145 97.5348 63.6378 98.6811 64.8077 99.7781M64.8077 99.7781C64.8077 99.7781 66.2234 101.072 66.9555 101.692M64.8077 99.7781C65.4551 100.377 66.1513 100.994 66.9555 101.692M65.1088 58.345C65.1088 79.0826 82.7306 96.7044 103.468 96.7044C124.206 96.7044 141.828 79.0826 141.828 58.345C141.828 37.6074 124.206 19.9855 103.468 19.9855C82.7306 19.9855 65.1088 37.6074 65.1088 58.345Z" stroke="white" stroke-width="4"/>
</g>
<path fill-rule="evenodd" clip-rule="evenodd" d="M103.5 99C81.6051 99 63 80.3948 63 58.5C63 36.6052 81.6051 18 103.5 18C125.395 18 144 36.6052 144 58.5C144 80.3948 125.395 99 103.5 99Z" fill="#9E00CC" fill-opacity="0.3"/>
<path d="M104 92C121.84 92 137 76.8403 137 59" stroke="white" stroke-width="4" stroke-linecap="round"/>
</g>
<defs>
<clipPath id="clip0_0_1">
<rect width="1440" height="6517" fill="white" transform="translate(-281 -2704)"/>
</clipPath>
</defs>
</svg>
