<svg width="400px" height="400px" viewBox="0 0 397 392" fill="none" xmlns="http://www.w3.org/2000/svg">
<g clip-path="url(#clip0_0_1)">
<g filter="drop-shadow(.245rem .5rem 0 #CD113B) drop-shadow(.245rem .5rem 0 #52006A)">
<path d="M123.675 366.566L118.357 369.637C111.773 373.438 103.379 371.618 98.9613 365.431L54.8854 303.714C40.1494 312.222 21.3066 307.173 12.7987 292.437L9.11983 286.065C-1.4198 267.81 4.83489 244.467 23.0901 233.927L47.7268 219.703C52.889 216.726 57.7658 213.751 62.4164 210.729C97.6379 187.836 119.891 162.171 155.002 111.292L152.712 107.325C148.074 99.2928 150.826 89.0226 158.858 84.3854C166.89 79.7482 177.16 82.5001 181.797 90.5319L210.319 139.934C222.267 133.035 237.545 137.129 244.444 149.077L245.278 150.522C252.176 162.47 248.083 177.748 236.134 184.647L265.073 234.769C269.71 242.801 266.958 253.071 258.926 257.708C250.894 262.346 240.624 259.594 235.987 251.562L233.419 247.114C169.072 252.584 135.763 259.505 100.941 277.454C95.987 280.008 91.0027 282.784 85.8942 285.811L128.308 345.201C133.373 352.294 131.224 362.208 123.675 366.566Z" fill="#FF7600"/>
<path d="M54.8854 303.714L98.9613 365.431C103.379 371.618 111.773 373.438 118.357 369.637L123.675 366.566C131.224 362.208 133.373 352.294 128.308 345.201L85.8942 285.811M54.8854 303.714L85.8942 285.811M54.8854 303.714C40.1494 312.222 21.3066 307.173 12.7987 292.437L9.11983 286.065C-1.4198 267.81 4.83489 244.467 23.0901 233.927L47.7268 219.703C52.889 216.726 57.7658 213.751 62.4164 210.729M85.8942 285.811C91.0027 282.784 95.987 280.008 100.941 277.454M233.419 247.114L235.987 251.562C240.624 259.594 250.894 262.346 258.926 257.708C266.958 253.071 269.71 242.801 265.073 234.769L236.134 184.647M233.419 247.114L155.002 111.292M233.419 247.114C169.072 252.584 135.763 259.505 100.941 277.454M155.002 111.292L152.712 107.325C148.074 99.2928 150.826 89.0226 158.858 84.3854C166.89 79.7482 177.16 82.5001 181.797 90.5319L210.319 139.934M155.002 111.292C119.891 162.171 97.6379 187.836 62.4164 210.729M62.4164 210.729L100.941 277.454M210.319 139.934L236.134 184.647M210.319 139.934C222.267 133.035 237.545 137.129 244.444 149.077L245.278 150.522C252.176 162.47 248.083 177.748 236.134 184.647" stroke="white" stroke-width="8"/>
</g>
<path d="M310.318 10.6605L290.647 4.24683C290.187 4.09699 289.686 4.29732 289.457 4.72272L262.687 54.3367C262.392 54.8829 262.661 55.5629 263.25 55.7598L273.773 59.2808C274.327 59.4662 274.605 60.0849 274.375 60.6221L249.563 118.684C249.099 119.77 250.57 120.622 251.281 119.68L304.246 49.506C304.66 48.958 304.411 48.1657 303.758 47.9528L292.242 44.1979C291.623 43.9964 291.359 43.2675 291.704 42.7164L310.856 12.1421C311.201 11.5909 310.936 10.8621 310.318 10.6605Z" fill="#FF7600"/>
<path d="M378.04 79.7231L365.529 63.2441C365.236 62.8591 364.711 62.7383 364.28 62.9571L314.011 88.477C313.458 88.758 313.291 89.47 313.663 89.9673L320.305 98.8569C320.655 99.3248 320.53 99.9916 320.036 100.302L266.563 133.88C265.563 134.508 266.286 136.046 267.407 135.677L350.917 108.187C351.57 107.972 351.816 107.179 351.401 106.632L344.076 96.9847C343.683 96.4667 343.881 95.7171 344.479 95.4609L377.638 81.2469C378.236 80.9907 378.434 80.2411 378.04 79.7231Z" fill="#FF7600"/>
<path d="M396.188 167.505L393.696 146.965C393.637 146.486 393.244 146.116 392.762 146.088L336.484 142.772C335.864 142.736 335.361 143.267 335.432 143.883L336.684 154.909C336.75 155.49 336.306 156.003 335.722 156.022L272.613 158.049C271.433 158.086 271.282 159.779 272.436 160.026L358.412 178.405C359.084 178.548 359.697 177.988 359.614 177.307L358.155 165.281C358.076 164.636 358.625 164.088 359.271 164.169L395.072 168.618C395.718 168.698 396.267 168.151 396.188 167.505Z" fill="#FF7600"/>
</g>
<defs>
<clipPath id="clip0_0_1">
<rect width="1440" height="6517" fill="white" transform="translate(-200 -5922)"/>
</clipPath>
</defs>
</svg>
